# xmcd
#
# Track frame offsets:
#	183
#	18695
#	34293
#	46948
#	63630
#	76588
#	94795
#	124100
#	146340
#	165015
#
# Disc length: 2454 seconds
#
# Revision: 1
# Processed by: cddbd v1.5.2PL0 Copyright (c) Steve Scherf et al.
# Submitted via: dBpowerAMP V4.0
#
DISCID=7609940a
DTITLE=Edward Ball - If A Man Ever Loved A Woman
DYEAR=1995
DGENRE=blues
TTITLE0=It's Kinda Lonely Where I Am (acoustic)
TTITLE1=Firehorse
TTITLE2=If A Man Ever Loved A Woman
TTITLE3=She's Just High Maintenance, Baby
TTITLE4=The Arizona Loner
TTITLE5=You Only Miss Me When I'm Bleeding
TTITLE6=The Ballad Of A Lonely Man
TTITLE7=A Ton Of Blues
TTITLE8=You're An Idiot Babe
TTITLE9=It's Kinda Lonely Where I Am
EXTD=
EXTT0=
EXTT1=
EXTT2=
EXTT3=
EXTT4=
EXTT5=
EXTT6=
EXTT7=
EXTT8=
EXTT9=
PLAYORDER=
